<?xml version="1.0" encoding="utf-8"?>
<!-- Generator: Adobe Illustrator 17.1.0, SVG Export Plug-In . SVG Version: 6.00 Build 0)  -->
<!DOCTYPE svg PUBLIC "-//W3C//DTD SVG 1.1//EN" "http://www.w3.org/Graphics/SVG/1.1/DTD/svg11.dtd">
<svg version="1.1" id="Слой_1" xmlns="http://www.w3.org/2000/svg" xmlns:xlink="http://www.w3.org/1999/xlink" x="0px" y="0px"
	 viewBox="0 0 960 560" enable-background="new 0 0 960 560" xml:space="preserve">
<polygon display="none" fill="#A42121" points="567.2,338.3 476.3,363.3 390.3,337 476.3,310.7 "/>
<g>
	<polygon fill="#FF3333" points="476.3,189.6 389.3,215.9 476.3,242.7 	"/>
	<polygon fill="#C62828" points="567.2,218.1 476.3,189.6 476.3,242.7 	"/>
	<path fill="#C62828" d="M476.3,242.7l-87-26.8V337l87,26.4v-0.2v-52.6V242.7z M457.1,257.8l5.3,1.7l-0.5,34.8l-5.3-1.7L457.1,257.8
		z M446.6,254.5l5.3,1.7l-0.5,34.8l-5.3-1.7L446.6,254.5z M436.1,251.2l5.3,1.6l-0.5,34.8l-5.3-1.6L436.1,251.2z M425.5,247.9
		l5.3,1.7l-0.5,34.8l-5.3-1.7L425.5,247.9z M415,244.6l5.3,1.7l-0.5,34.8l-5.3-1.7L415,244.6z M414.3,290.7l5.3,1.7l-0.5,34.8
		l-5.3-1.7L414.3,290.7z M404.5,241.3l5.3,1.6l-0.5,34.8l-5.3-1.6L404.5,241.3z M403.8,287.4l5.3,1.6l-0.5,34.8l-5.3-1.6
		L403.8,287.4z M424.3,328.8l0.5-34.8l5.3,1.7l-0.5,34.8L424.3,328.8z M434.9,332.1l0.5-34.8l5.3,1.6l-0.5,34.8L434.9,332.1z
		 M445.4,335.4l0.5-34.8l5.3,1.7l-0.5,34.8L445.4,335.4z M461.2,340.3l-5.3-1.7l0.5-34.8l5.3,1.7L461.2,340.3z"/>
	<polygon fill="#FFFFFF" points="409.7,243 404.5,241.3 404,276.2 409.2,277.8 	"/>
	<polygon fill="#FFFFFF" points="420.3,246.3 415,244.6 414.5,279.5 419.8,281.1 	"/>
	<polygon fill="#FFFFFF" points="430.8,249.6 425.5,247.9 425,282.8 430.3,284.4 	"/>
	<polygon fill="#FFFFFF" points="441.3,252.9 436.1,251.2 435.6,286.1 440.8,287.7 	"/>
	<polygon fill="#FFFFFF" points="451.9,256.2 446.6,254.5 446.1,289.4 451.4,291 	"/>
	<polygon fill="#FFFFFF" points="462.4,259.5 457.1,257.8 456.6,292.7 461.9,294.3 	"/>
	<polygon fill="#FFFFFF" points="409,289 403.8,287.4 403.3,322.2 408.5,323.8 	"/>
	<polygon fill="#FFFFFF" points="419.6,292.3 414.3,290.7 413.8,325.5 419.1,327.1 	"/>
	<polygon fill="#FFFFFF" points="430.1,295.6 424.9,294 424.3,328.8 429.6,330.4 	"/>
	<polygon fill="#FFFFFF" points="440.7,298.9 435.4,297.3 434.9,332.1 440.1,333.7 	"/>
	<polygon fill="#FFFFFF" points="451.2,302.2 445.9,300.6 445.4,335.4 450.7,337 	"/>
	<polygon fill="#FFFFFF" points="456.5,303.9 455.9,338.7 461.2,340.3 461.7,305.5 	"/>
	<polygon fill="#FF3333" points="534.2,258.3 532.8,262.9 535.5,262.2 	"/>
	<path fill="#FF3333" d="M476.3,242.7v68v52.6l90.9-24.9V218.1L476.3,242.7z M542,249.9l1.1-0.3l6,6.3l0.1-7.9
		c1-0.3,2.1-0.6,3.2-0.8l-0.2,16.1l-1.1,0.3l-5.9-6.3l-0.1,7.9c-1.1,0.3-2.1,0.6-3.2,0.9L542,249.9z M554.3,274.1l-0.2,16.1
		l-1.1,0.3l-5.9-6.3l-0.1,7.9c-1.1,0.3-2.1,0.6-3.2,0.9l0.2-16.1l1.1-0.3l6,6.3l0.1-7.9C552.2,274.6,553.3,274.3,554.3,274.1z
		 M535.6,291.4c1.2-0.3,2-1,2.6-2.7l-2.6,0.7l0.1-3.6l5.7-1.5c0,1.6,0,3.1-0.4,4.8c-0.9,3.6-3.2,5.5-5.4,6.1c-3.1,0.8-6.1-1.1-6-6.6
		c0.1-5.5,3.2-9.1,6.3-9.9c2.4-0.6,4.9,0.4,5.5,4.2l-3,0.8c-0.5-1.2-1.3-1.6-2.5-1.3c-1.9,0.5-3,2.8-3,5.3
		C532.6,290.5,533.8,291.9,535.6,291.4z M528,269.1l5.7-17.1l1.3-0.4l5.2,14.2l0,0.6l-3,0.8l-0.7-1.8l-4.8,1.3l-0.7,2.2l-3,0.8
		L528,269.1z M528.1,293.5l-0.1,3.6l-6.1,1.6l0.1-3.6l1.5-0.4l0.1-8.9l-1.4,0.4l0.1-3.6l5.9-1.6l-0.1,3.6l-1.4,0.4l-0.1,8.9
		L528.1,293.5z M514.9,257.1l1.1-0.3l4.6,5.7l4.9-8.3l1.1-0.3l-0.2,16.1c-1,0.3-2.1,0.6-3.1,0.8l0.1-7.2l-2.6,4.3l-0.3,0.1l-2.5-2.9
		l-0.1,7.2c-1,0.3-2.1,0.6-3.1,0.8L514.9,257.1z M516,284.1c2.3-0.6,4.6,0.5,4.5,4c-1.1,0.3-1.9,0.5-2.9,0.8c0-1.1-0.8-1.3-1.6-1.1
		c-0.8,0.2-1.7,1-1.8,2c-0.1,1.2,0.8,1.2,1.9,1.1c2.4-0.3,4.7-0.4,4.7,3.6c-0.1,3.4-2.5,5.7-4.9,6.4c-2.5,0.7-4.9-0.4-4.8-4
		c1-0.3,1.9-0.5,3-0.8c0,1,1,1.3,1.9,1c0.9-0.2,1.8-0.9,1.8-1.9c0-1.1-1-1.1-2.2-0.9c-2.6,0.4-4.3-0.3-4.3-3.7
		C511.3,287,513.7,284.7,516,284.1z M502.4,260.5c1-0.3,2-0.5,2.9-0.8l-0.2,10.6c0,1.3,0.9,1.7,1.8,1.5c0.9-0.2,1.8-1.1,1.8-2.4
		l0.2-10.6c1-0.3,2-0.5,2.9-0.8l-0.2,10.7c-0.1,3.5-2.4,6.2-4.8,6.9c-2.5,0.7-4.7-0.8-4.7-4.3L502.4,260.5z M501.7,288.1
		c2.8-0.7,4.7-1.3,7.5-2c0,1.2,0,2.4-0.1,3.7c-1.8,0.5-2.7,0.7-4.5,1.2l0,2.3l4.1-1.1c0,1.2,0,2.4-0.1,3.6l-4.1,1.1
		c0,0.9,0,1.9,0,2.8c1.8-0.5,2.8-0.8,4.6-1.2c0,1.2,0,2.4-0.1,3.6c-2.8,0.8-4.9,1.3-7.7,2.1C501.6,298.8,501.7,293.5,501.7,288.1z
		 M489.4,264c1-0.3,2.1-0.6,3.2-0.8l-0.1,5.8l3.7-1l0.1-5.8c1-0.3,2.1-0.6,3.1-0.8l-0.2,16.1c-1,0.3-2.1,0.6-3.1,0.8l0.1-6.5l-3.7,1
		l-0.1,6.5c-1,0.3-2.1,0.6-3.2,0.8L489.4,264z M489,291.6l4.5-1.2c7.8-2,7.6,13.9-0.2,16.1l-4.5,1.2L489,291.6z M495.8,333.1
		c-2.5,0.7-5,1.3-7.5,2l0.2-16.1c1-0.3,2-0.5,3.1-0.8c-0.1,8.3-0.1,5.5-0.2,12.4l4.4-1.2C495.8,330.8,495.8,331.8,495.8,333.1z
		 M503,331.2l-6.1,1.6l0.1-3.6l1.5-0.4l0.1-8.9l-1.4,0.4l0.1-3.6l5.9-1.6l-0.1,3.6l-1.4,0.4l-0.1,8.9l1.5-0.4L503,331.2z
		 M508.2,324.6l-0.1,5.2c-1,0.3-2.1,0.6-3.1,0.8l0.2-16.1c2.5-0.7,5-1.4,7.5-2c0,1.4,0,2.3-0.1,3.7l-4.4,1.2l-0.1,3.5l3.9-1
		c0,1.4,0,2.3-0.1,3.7L508.2,324.6z M522.6,326c-2.8,0.8-4.9,1.3-7.7,2.1c0.1-5.4,0.2-10.7,0.2-16.1c2.8-0.7,4.7-1.3,7.5-2
		c0,1.2,0,2.4-0.1,3.7c-1.8,0.5-2.7,0.7-4.5,1.2l0,2.3l4.1-1.1c0,1.2,0,2.4-0.1,3.6l-4.1,1.1c0,0.9,0,1.9,0,2.8
		c1.8-0.5,2.8-0.8,4.6-1.2C522.6,323.5,522.6,324.7,522.6,326z"/>
	<path fill="#FF3333" d="M493.5,294.1l-1.5,0.4l-0.1,8.6l1.5-0.4C497.2,301.6,497.3,293,493.5,294.1z"/>
	<path fill="#FFFFFF" d="M492.4,272.8l3.7-1l-0.1,6.5c1-0.3,2.1-0.6,3.1-0.8l0.2-16.1c-1,0.3-2.1,0.6-3.1,0.8l-0.1,5.8l-3.7,1
		l0.1-5.8c-1,0.3-2.1,0.6-3.2,0.8l-0.2,16.1c1-0.3,2.1-0.6,3.2-0.8L492.4,272.8z"/>
	<path fill="#FFFFFF" d="M506.9,275.5c2.5-0.7,4.8-3.3,4.8-6.9l0.2-10.7c-1,0.3-2,0.5-2.9,0.8l-0.2,10.6c0,1.3-1,2.2-1.8,2.4
		c-0.9,0.2-1.8-0.2-1.8-1.5l0.2-10.6c-1,0.3-2,0.5-2.9,0.8l-0.2,10.7C502.2,274.8,504.4,276.2,506.9,275.5z"/>
	<path fill="#FFFFFF" d="M517.9,265.2l2.5,2.9l0.3-0.1l2.6-4.3l-0.1,7.2c1.1-0.3,2.1-0.6,3.1-0.8l0.2-16.1l-1.1,0.3l-4.9,8.3
		l-4.6-5.7l-1.1,0.3l-0.2,16.1c1-0.3,2.1-0.6,3.1-0.8L517.9,265.2z"/>
	<path fill="#FFFFFF" d="M531.7,266.7l4.8-1.3l0.7,1.8l3-0.8l0-0.6l-5.2-14.2l-1.3,0.4l-5.7,17.1l0,0.6l3-0.8L531.7,266.7z
		 M534.2,258.3l1.3,3.8l-2.7,0.7L534.2,258.3z"/>
	<path fill="#FFFFFF" d="M545,257.3l5.9,6.3l1.1-0.3l0.2-16.1c-1.1,0.3-2.1,0.6-3.2,0.8l-0.1,7.9l-6-6.3l-1.1,0.3l-0.2,16.1
		c1.1-0.3,2.1-0.6,3.2-0.9L545,257.3z"/>
	<path fill="#FFFFFF" d="M493.5,290.3l-4.5,1.2l-0.2,16.1l4.5-1.2C501.1,304.2,501.3,288.3,493.5,290.3z M492,294.5l1.5-0.4
		c3.8-1,3.7,7.6-0.1,8.6l-1.5,0.4L492,294.5z"/>
	<path fill="#FFFFFF" d="M509.2,298.5c-1.8,0.5-2.8,0.8-4.6,1.2c0-1,0-1.9,0-2.8l4.1-1.1c0-1.2,0-2.4,0.1-3.6l-4.1,1.1l0-2.3
		c1.8-0.5,2.7-0.7,4.5-1.2c0-1.2,0-2.5,0.1-3.7c-2.8,0.8-4.7,1.3-7.5,2c-0.1,5.3-0.2,10.7-0.2,16.1c2.8-0.7,4.9-1.3,7.7-2.1
		C509.2,300.9,509.2,299.7,509.2,298.5z"/>
	<path fill="#FFFFFF" d="M515.6,294.2c1.2-0.2,2.2-0.2,2.2,0.9c0,0.9-0.9,1.6-1.8,1.9c-1,0.3-1.9,0-1.9-1c-1.1,0.3-1.9,0.5-3,0.8
		c-0.1,3.5,2.3,4.6,4.8,4c2.4-0.7,4.9-3,4.9-6.4c0.1-4-2.3-3.9-4.7-3.6c-1.1,0.1-2,0.1-1.9-1.1c0.1-1,0.9-1.7,1.8-2
		c0.8-0.2,1.6,0.1,1.6,1.1c1.1-0.3,1.8-0.5,2.9-0.8c0.1-3.5-2.2-4.6-4.5-4c-2.3,0.6-4.7,3-4.7,6.4C511.3,294,513,294.7,515.6,294.2z
		"/>
	<polygon fill="#FFFFFF" points="528.2,284.6 528.2,281 522.3,282.6 522.3,286.2 523.7,285.8 523.6,294.7 522,295.1 522,298.7 
		528.1,297.1 528.1,293.5 526.6,293.9 526.7,285 	"/>
	<path fill="#FFFFFF" d="M535.7,282.6c1.2-0.3,2,0,2.5,1.3l3-0.8c-0.5-3.8-3-4.8-5.5-4.2c-3.1,0.8-6.2,4.4-6.3,9.9
		c-0.1,5.5,3,7.4,6,6.6c2.2-0.6,4.5-2.5,5.4-6.1c0.4-1.7,0.5-3.2,0.4-4.8l-5.7,1.5l-0.1,3.6l2.6-0.7c-0.6,1.7-1.4,2.3-2.6,2.7
		c-1.8,0.5-3-0.9-2.9-3.6C532.7,285.4,533.8,283.1,535.7,282.6z"/>
	<path fill="#FFFFFF" d="M551,282.8l-6-6.3l-1.1,0.3l-0.2,16.1c1-0.3,2.1-0.6,3.2-0.9l0.1-7.9l5.9,6.3l1.1-0.3l0.2-16.1
		c-1,0.3-2.1,0.6-3.1,0.8L551,282.8z"/>
	<path fill="#FFFFFF" d="M491.6,318.3c-1,0.3-2.1,0.6-3.1,0.8l-0.2,16.1c2.4-0.7,5-1.3,7.5-2c0-1.4,0-2.3,0.1-3.7l-4.4,1.2
		C491.5,323.8,491.5,326.6,491.6,318.3z"/>
	<polygon fill="#FFFFFF" points="501.6,319.1 503.1,318.8 503.1,315.2 497.2,316.8 497.2,320.3 498.6,320 498.5,328.8 496.9,329.2 
		496.9,332.8 503,331.2 503,327.6 501.5,328 	"/>
	<path fill="#FFFFFF" d="M512.1,319.9l-3.9,1l0.1-3.5l4.4-1.2c0-1.4,0-2.3,0.1-3.7c-2.5,0.7-5,1.3-7.5,2l-0.2,16.1
		c1-0.3,2.1-0.6,3.1-0.8l0.1-5.2l3.9-1C512.1,322.2,512.1,321.3,512.1,319.9z"/>
	<path fill="#FFFFFF" d="M518,323.6c0-1,0-1.9,0-2.8l4.1-1.1c0-1.2,0-2.4,0.1-3.6l-4.1,1.1l0-2.3c1.8-0.5,2.7-0.7,4.5-1.2
		c0-1.2,0-2.5,0.1-3.7c-2.8,0.8-4.7,1.3-7.5,2c-0.1,5.3-0.2,10.7-0.2,16.1c2.8-0.7,4.9-1.3,7.7-2.1c0-1.2,0-2.5,0.1-3.6
		C520.8,322.8,519.8,323.1,518,323.6z"/>
</g>
<path display="none" fill="#851B1B" d="M347.2,227.1l-82.6,22.6l-78.2-23.9c-2.4-0.7-2.4-4.1,0-4.8l78.2-23.9l82.6,25.1
	C349.6,223.1,349.6,226.5,347.2,227.1z"/>
</svg>
