<?xml version="1.0" encoding="utf-8"?>
<!-- Generated by IcoMoon.io -->
<!DOCTYPE svg PUBLIC "-//W3C//DTD SVG 1.1//EN" "http://www.w3.org/Graphics/SVG/1.1/DTD/svg11.dtd">
<svg version="1.1" xmlns="http://www.w3.org/2000/svg" xmlns:xlink="http://www.w3.org/1999/xlink" width="32" height="32" viewBox="0 0 32 32">
<path fill="#9e9e9e" d="M23.667 11.636c0-4.227-3.439-7.667-7.667-7.667s-7.667 3.439-7.667 7.667c0 2.933 1.177 4.492 2.215 5.869 0.877 1.162 1.634 2.166 1.634 3.93l-0 3.222c0 1.861 1.495 3.375 3.357 3.375h0.922c1.861 0 3.363-1.514 3.363-3.375l-0.007-3.222c0-1.764 0.757-2.767 1.634-3.93 1.038-1.376 2.215-2.936 2.215-5.869zM16.461 26.469h-0.922c-0.797 0-1.476-0.518-1.718-1.235h4.357c-0.242 0.717-0.92 1.235-1.718 1.235zM18.274 23.672h-4.547v-0.747h4.547v0.747zM18.255 21.362h-4.51c-0.020-2.243-1.001-3.542-1.949-4.799-0.977-1.295-1.9-2.518-1.9-4.928 0-3.366 2.738-6.104 6.104-6.104s6.104 2.738 6.104 6.104c0 2.409-0.923 3.633-1.9 4.928-0.948 1.257-1.929 2.556-1.949 4.799z"></path>
<path fill="#9e9e9e" d="M14.879 17.742c0.405-0.148 0.614-0.596 0.467-1.001l-1.699-4.664 0.576-0.902 1.245 1.153c0.3 0.277 0.762 0.277 1.062 0l1.245-1.153 0.576 0.902-1.699 4.664c-0.148 0.405 0.061 0.854 0.467 1.001 0.088 0.032 0.178 0.047 0.267 0.047 0.319 0 0.619-0.197 0.734-0.514l1.831-5.027c0.083-0.229 0.055-0.483-0.076-0.688l-1.288-2.015c-0.125-0.195-0.329-0.325-0.559-0.354s-0.46 0.044-0.63 0.202l-1.4 1.297-1.4-1.297c-0.17-0.157-0.401-0.231-0.63-0.202s-0.434 0.159-0.559 0.354l-1.287 2.015c-0.131 0.205-0.159 0.459-0.076 0.688l1.831 5.027c0.148 0.405 0.596 0.614 1.001 0.467z"></path>
</svg>
