<?xml version="1.0" encoding="utf-8"?>
<!-- Generated by IcoMoon.io -->
<!DOCTYPE svg PUBLIC "-//W3C//DTD SVG 1.1//EN" "http://www.w3.org/Graphics/SVG/1.1/DTD/svg11.dtd">
<svg version="1.1" xmlns="http://www.w3.org/2000/svg" xmlns:xlink="http://www.w3.org/1999/xlink" width="32" height="32" viewBox="0 0 32 32">
<path fill="#9e9e9e" d="M27.401 12.757l-11.041-5.731c-0.226-0.117-0.494-0.117-0.72 0l-11.041 5.731c-0.259 0.134-0.421 0.402-0.421 0.693 0 0 0 0 0 0v2.992c0 0.431 0.35 0.781 0.781 0.781s0.781-0.35 0.781-0.781v-1.706l1.675 0.869v6.221c0 0.163 0.051 0.322 0.146 0.454 0.081 0.114 2.063 2.782 8.439 2.782s8.358-2.668 8.439-2.782c0.095-0.133 0.146-0.291 0.146-0.454v-6.221l2.816-1.462c0.259-0.134 0.421-0.402 0.421-0.693s-0.162-0.559-0.421-0.693zM23.022 21.525c-0.519 0.499-2.442 1.975-7.022 1.975s-6.503-1.476-7.022-1.975v-5.109l6.662 3.458c0.113 0.059 0.236 0.088 0.36 0.088s0.247-0.029 0.36-0.088l6.662-3.458v5.108zM16 18.301l-9.345-4.851 9.345-4.851 9.345 4.851-9.345 4.851z"></path>
<path fill="#9e9e9e" d="M4.959 17.912c-0.431 0-0.781 0.35-0.781 0.781v0.945c0 0.431 0.35 0.781 0.781 0.781s0.781-0.35 0.781-0.781v-0.945c0-0.431-0.35-0.781-0.781-0.781z"></path>
</svg>
