<?xml version="1.0" encoding="utf-8"?>
<!-- Generated by IcoMoon.io -->
<!DOCTYPE svg PUBLIC "-//W3C//DTD SVG 1.1//EN" "http://www.w3.org/Graphics/SVG/1.1/DTD/svg11.dtd">
<svg version="1.1" xmlns="http://www.w3.org/2000/svg" xmlns:xlink="http://www.w3.org/1999/xlink" width="32" height="32" viewBox="0 0 32 32">
<path fill="#9e9e9e" d="M23.234 5.312h-14.468c-2.154 0-3.906 1.752-3.906 3.906v8.924c0 2.154 1.752 3.906 3.906 3.906l9.215 0 4.411 4.411c0.149 0.149 0.349 0.229 0.553 0.229 0.101 0 0.202-0.020 0.299-0.059 0.292-0.121 0.482-0.406 0.482-0.722v-3.89c1.922-0.243 3.414-1.888 3.414-3.875v-8.924c0-2.154-1.752-3.906-3.906-3.906zM25.578 18.142c0 1.292-1.051 2.344-2.344 2.344h-0.289c-0.431 0-0.781 0.35-0.781 0.781v2.754l-3.306-3.306c-0.146-0.147-0.345-0.229-0.552-0.229h-9.539c-1.292 0-2.344-1.051-2.344-2.344v-8.924c0-1.292 1.051-2.344 2.344-2.344h14.468c1.292 0 2.344 1.051 2.344 2.344v8.924z"></path>
<path fill="#9e9e9e" d="M21.75 10.844h-11.5c-0.431 0-0.781 0.35-0.781 0.781s0.35 0.781 0.781 0.781h11.5c0.431 0 0.781-0.35 0.781-0.781s-0.35-0.781-0.781-0.781z"></path>
<path fill="#9e9e9e" d="M21.75 15.219h-11.5c-0.431 0-0.781 0.35-0.781 0.781s0.35 0.781 0.781 0.781h11.5c0.431 0 0.781-0.35 0.781-0.781s-0.35-0.781-0.781-0.781z"></path>
</svg>
