<?xml version="1.0" encoding="utf-8"?>
<!-- Generated by IcoMoon.io -->
<!DOCTYPE svg PUBLIC "-//W3C//DTD SVG 1.1//EN" "http://www.w3.org/Graphics/SVG/1.1/DTD/svg11.dtd">
<svg version="1.1" xmlns="http://www.w3.org/2000/svg" xmlns:xlink="http://www.w3.org/1999/xlink" width="32" height="32" viewBox="0 0 32 32">
<path fill="#9e9e9e" d="M24.466 28.902h-17.281c-1.772 0-3.213-1.441-3.213-3.213v-1.064c0-3.455 2.703-6.295 6.154-6.466l0.389-0.019 0.237 0.31c1.303 1.709 3.15 2.69 5.066 2.69s3.763-0.981 5.068-2.69l0.235-0.309 0.388 0.018c3.459 0.162 6.167 3.002 6.167 6.466v1.064c0.002 1.772-1.44 3.213-3.211 3.213zM9.831 19.673c-2.482 0.305-4.376 2.414-4.376 4.953v1.064c0 0.954 0.777 1.731 1.731 1.731h17.28c0.954 0 1.731-0.777 1.731-1.731v-1.064c0-2.546-1.9-4.654-4.388-4.954-1.571 1.881-3.733 2.952-5.99 2.952s-4.419-1.070-5.988-2.951z"></path>
<path fill="#9e9e9e" d="M15.819 20.564c-3.474 0-6.3-3.451-6.3-7.691s2.825-7.691 6.3-7.691 6.3 3.451 6.3 7.691c-0.001 4.24-2.826 7.691-6.3 7.691zM15.819 6.663c-2.656 0-4.817 2.786-4.817 6.209s2.161 6.209 4.817 6.209 4.817-2.786 4.817-6.209c0-3.424-2.161-6.209-4.817-6.209z"></path>
<path fill="#9e9e9e" d="M31.259 21.935c-0.409 0-0.741-0.332-0.741-0.741v-0.933c0-2.173-1.608-3.975-3.725-4.254-0.268 0.317-0.555 0.61-0.859 0.874-0.308 0.268-0.777 0.236-1.046-0.074s-0.235-0.777 0.074-1.046c0.328-0.286 0.636-0.615 0.913-0.977l0.236-0.309 0.388 0.018c3.086 0.145 5.502 2.679 5.502 5.767v0.933c0 0.41-0.332 0.742-0.741 0.742z"></path>
<path fill="#9e9e9e" d="M25.2 14.657c-0.145 0-0.29-0.042-0.419-0.13-0.337-0.232-0.422-0.693-0.191-1.030 0.675-0.983 1.047-2.246 1.047-3.555 0-2.956-1.857-5.361-4.14-5.361-0.409 0-0.741-0.332-0.741-0.741s0.332-0.741 0.741-0.741c3.1 0 5.622 3.069 5.622 6.843 0 1.606-0.464 3.167-1.307 4.394-0.145 0.208-0.377 0.321-0.613 0.321z"></path>
<path fill="#9e9e9e" d="M0.741 21.935c-0.409 0-0.741-0.332-0.741-0.741v-0.933c0-3.089 2.416-5.622 5.502-5.767l0.388-0.018 0.236 0.309c0.277 0.362 0.585 0.692 0.913 0.977 0.309 0.269 0.342 0.737 0.074 1.046s-0.737 0.342-1.046 0.074c-0.304-0.264-0.591-0.558-0.859-0.874-2.116 0.279-3.725 2.081-3.725 4.254v0.933c0 0.409-0.332 0.74-0.741 0.74z"></path>
<path fill="#9e9e9e" d="M6.801 14.657c-0.236 0-0.468-0.113-0.612-0.321-0.843-1.227-1.307-2.787-1.307-4.394 0-3.773 2.521-6.843 5.622-6.843 0.409 0 0.741 0.332 0.741 0.741s-0.332 0.741-0.741 0.741c-2.282 0-4.14 2.405-4.14 5.361 0 1.309 0.372 2.572 1.047 3.555 0.231 0.337 0.146 0.799-0.191 1.030-0.13 0.088-0.276 0.13-0.42 0.13z"></path>
</svg>
